<svg width="19" height="20" viewBox="0 0 19 20" fill="none" xmlns="http://www.w3.org/2000/svg">
<path d="M9.64764 1.23965C9.69514 1.23965 9.74264 1.2528 9.78523 1.27746L17.0919 5.54379C17.1771 5.59311 17.2295 5.68518 17.2279 5.78218L17.2001 14.2671C17.2001 14.3658 17.1476 14.4562 17.0625 14.5055L9.7279 18.7242C9.68695 18.7488 9.63782 18.7604 9.59032 18.7604C9.54282 18.7604 9.49532 18.7472 9.45273 18.7225L2.14601 14.4562C2.06084 14.4069 2.00843 14.3148 2.01007 14.2178L2.03791 5.73285C2.03791 5.63421 2.09032 5.54379 2.1755 5.49447L9.51006 1.27582C9.55101 1.25116 9.59851 1.23965 9.64764 1.23965ZM9.65092 2.93609e-05C9.39049 -0.0016147 9.13006 0.0657916 8.89584 0.200604L1.56128 4.41761C1.09284 4.68723 0.804565 5.18538 0.801289 5.72792L0.773444 14.2129C0.771807 14.7538 1.05844 15.2552 1.52361 15.5281L8.83033 19.7945C9.06291 19.9309 9.32334 19.9983 9.5854 20C9.84583 20.0016 10.1063 19.9342 10.3405 19.7994L17.675 15.5807C18.1435 15.3111 18.4318 14.813 18.435 14.2704L18.4629 5.78711C18.4645 5.24621 18.1779 4.74478 17.7127 4.47186L10.406 0.205536C10.1718 0.0690797 9.91135 2.93609e-05 9.65092 2.93609e-05Z" fill="#1B4ADD"/>
<path d="M11.3396 5.00818H10.2684C10.1882 5.00818 10.1161 5.05914 10.0883 5.13477L6.64537 14.6111C6.62244 14.6736 6.6683 14.7393 6.73545 14.7393H7.80665C7.88691 14.7393 7.95897 14.6884 7.98682 14.6128L11.4313 5.13477C11.451 5.07394 11.4051 5.00818 11.3396 5.00818ZM9.46585 5.00818H8.39466C8.3144 5.00818 8.24233 5.05914 8.21449 5.13477L4.7716 14.6111C4.74867 14.6736 4.79453 14.7393 4.86168 14.7393H5.93288C6.01314 14.7393 6.0852 14.6884 6.11305 14.6128L9.55757 5.13477C9.57887 5.07394 9.53301 5.00818 9.46585 5.00818ZM10.8532 8.68264C10.822 8.5988 10.7041 8.5988 10.673 8.68264L10.1161 10.2149C10.1014 10.2576 10.1014 10.3037 10.1161 10.3464L11.6672 14.6144C11.695 14.69 11.7671 14.741 11.8474 14.741H12.9186C12.9857 14.741 13.0316 14.6752 13.0087 14.6128L10.8532 8.68264ZM14.8808 14.6111L11.79 6.10641C11.7589 6.02256 11.641 6.02256 11.6099 6.10641L11.053 7.63867C11.0382 7.68141 11.0382 7.72745 11.053 7.77019L13.541 14.6144C13.5688 14.69 13.6409 14.741 13.7211 14.741H14.7923C14.8562 14.7393 14.9037 14.6736 14.8808 14.6111Z" fill="#1B4ADD"/>
</svg>
