<svg width="24" height="24" viewBox="0 0 24 24" fill="none" xmlns="http://www.w3.org/2000/svg">
<path fill-rule="evenodd" clip-rule="evenodd" d="M18.3455 13.6697C19.268 12.7472 19.268 11.2519 18.3455 10.3294C17.018 9.00375 14.9958 6.98064 13.6693 5.65416C12.7468 4.73165 11.2516 4.73165 10.329 5.65416C9.00338 6.98072 6.98028 9.00385 5.6538 10.3294C4.73129 11.2519 4.73129 12.7471 5.6538 13.6697C6.98035 14.9962 9.00348 17.0184 10.329 18.3458C11.2515 19.2684 12.7468 19.2684 13.6693 18.3458C14.9959 17.0184 17.018 14.9962 18.3455 13.6697ZM17.677 13.0022L13.0018 17.6774C12.4487 18.2305 11.5506 18.2305 10.9974 17.6774L6.32225 13.0022C5.76912 12.4491 5.76912 11.5509 6.32225 10.9978L10.9974 6.32261C11.5506 5.76948 12.4487 5.76948 13.0018 6.32261L17.677 10.9978C18.2302 11.5509 18.2302 12.4491 17.677 13.0022ZM11.9996 14.3616C12.2602 14.3616 12.4721 14.5735 12.4721 14.8341C12.4721 15.0947 12.2602 15.3066 11.9996 15.3066C11.739 15.3066 11.5271 15.0947 11.5271 14.8341C11.5271 14.5735 11.739 14.3616 11.9996 14.3616ZM11.5271 9.16606V13.4167C11.5271 13.6773 11.739 13.8892 11.9996 13.8892C12.2602 13.8892 12.4721 13.6773 12.4721 13.4167V9.16606C12.4721 8.90544 12.2602 8.69355 11.9996 8.69355C11.739 8.69355 11.5271 8.90542 11.5271 9.16606Z" fill="white"/>
</svg>
