<svg width="198" height="50" viewBox="0 0 198 50" fill="none" xmlns="http://www.w3.org/2000/svg">
<path d="M68.3477 21.2163C71.1204 21.2163 72.3569 22.991 72.769 24.5807L76.6658 23.1758C75.9164 20.2921 73.2186 17.2604 68.3102 17.2604C63.0646 17.2604 58.9805 21.2533 58.9805 26.799C58.9805 32.2707 63.0646 36.3745 68.4226 36.3745C73.2186 36.3745 75.9539 33.3059 76.8157 30.4961L72.9938 29.1282C72.5817 30.4961 71.2703 32.4556 68.4226 32.4556C65.6874 32.4556 63.3269 30.4222 63.3269 26.799C63.3269 23.1758 65.6874 21.2163 68.3477 21.2163Z" fill="white"/>
<path d="M87.7701 32.5295C85.1098 32.5295 82.6743 30.5331 82.6743 26.799C82.6743 23.0649 85.1098 21.1424 87.7701 21.1424C90.4678 21.1424 92.8658 23.0649 92.8658 26.799C92.8658 30.5701 90.4678 32.5295 87.7701 32.5295ZM87.7701 17.2604C82.3371 17.2604 78.3279 21.2903 78.3279 26.799C78.3279 32.3447 82.3371 36.3745 87.7701 36.3745C93.2405 36.3745 97.2497 32.3447 97.2497 26.799C97.2497 21.2903 93.2405 17.2604 87.7701 17.2604Z" fill="white"/>
<path d="M104.61 25.4311C104.61 23.0649 105.922 21.1794 108.395 21.1794C111.13 21.1794 112.142 22.954 112.142 25.1723V35.82H116.488V24.4328C116.488 20.4769 114.352 17.2974 109.893 17.2974C107.87 17.2974 105.697 18.1477 104.498 20.2181V17.815H100.264V35.82H104.61V25.4311Z" fill="white"/>
<path d="M123.674 26.762C123.674 23.3237 125.773 21.1424 128.62 21.1424C131.468 21.1424 133.416 23.2867 133.416 26.725C133.416 30.1634 131.43 32.4926 128.583 32.4926C125.623 32.4926 123.674 30.2003 123.674 26.762ZM137.613 9.05282H133.379V19.9224C132.817 18.7762 131.206 17.3344 128.021 17.3344C122.888 17.3344 119.328 21.5861 119.328 26.762C119.328 32.1968 122.85 36.2636 128.096 36.2636C130.681 36.2636 132.592 35.0066 133.454 33.4908C133.454 34.2302 133.566 35.4133 133.641 35.82H137.8C137.763 35.5242 137.613 34.1563 137.613 32.5295V9.05282Z" fill="white"/>
<path d="M153.654 33.8235C153.654 34.5629 153.729 35.4133 153.804 35.82H157.963C157.888 35.1545 157.776 34.0084 157.776 32.5295V17.815H153.429V28.4627C153.429 30.8289 152.118 32.4926 149.607 32.4926C146.985 32.4926 145.935 30.607 145.935 28.3888V17.815H141.589V29.1652C141.589 33.158 144.137 36.3376 148.483 36.3376C150.619 36.3376 152.755 35.4503 153.654 33.8235Z" fill="white"/>
<path d="M166.274 35.82V17.815H161.965V35.82H166.274ZM161.291 11.4929C161.291 13.0457 162.565 14.2658 164.101 14.2658C165.675 14.2658 166.949 13.0457 166.949 11.4929C166.949 9.94013 165.675 8.68311 164.101 8.68311C162.565 8.68311 161.291 9.94013 161.291 11.4929Z" fill="white"/>
<path d="M176.178 12.3063H172.244V15.0052C172.244 16.5949 171.382 17.815 169.434 17.815H168.497V21.623H171.869V30.681C171.869 34.0453 173.967 36.0418 177.34 36.0418C178.913 36.0418 179.738 35.746 180 35.6351V32.0859C179.813 32.1228 179.101 32.2338 178.501 32.2338C176.89 32.2338 176.178 31.5683 176.178 29.9785V21.623H179.962V17.815H176.178V12.3063Z" fill="white"/>
<path opacity="0.4" d="M38.3136 34.6267L45.4648 22.2124L38.5952 22.2124L31.444 34.6267L38.3136 34.6267Z" fill="white"/>
<path opacity="0.7" d="M15.4987 35.2842L19.6092 42.4206L22.8075 47.9719L26.2422 42.0089L18.9336 29.3217L15.4987 35.2842Z" fill="white"/>
<path d="M26.9574 41.5969L49.293 41.5969L42.2723 29.408L38.7921 35.4501L30.4955 35.4446L26.6596 28.9083L19.6489 28.9083L26.9574 41.5969Z" fill="white"/>
<path opacity="0.4" d="M26.9574 42.4201L23.5216 48.3843L45.8571 48.3843L49.293 42.4201L26.9574 42.4201Z" fill="white"/>
<path opacity="0.7" d="M31.3004 21.8014L27.3707 28.4969L30.7293 34.2195L37.8828 21.801L26.715 2.41305L19.6943 14.602L27.0755 14.602L31.3004 21.8014Z" fill="white"/>
<path d="M45.4648 21.3892L34.2965 2.00001L27.4268 2.00001L38.5981 21.3892L45.4648 21.3892Z" fill="white"/>
<path d="M30.1055 21.3892L26.6056 15.425L11.8812 15.425L15.3166 21.3892L30.1055 21.3892Z" fill="white"/>
<path opacity="0.7" d="M11.1692 15.8372L0.000801607 35.2252L3.43319 41.1841L14.6016 21.7961L11.1692 15.8372Z" fill="white"/>
<path opacity="0.4" d="M18.6979 28.0852L26.6591 28.0852L30.1055 22.2129L15.3173 22.2129L4.14602 41.5974L18.1874 41.5974L14.5515 35.2848L18.6979 28.0852Z" fill="white"/>
</svg>
