<svg width="474" height="81" viewBox="0 0 474 81" fill="none" xmlns="http://www.w3.org/2000/svg">
  <path fill-rule="evenodd" clip-rule="evenodd" d="M60.7269 40.4952C62.6351 40.656 64.534 41.2327 66.3019 42.2632C72.7047 46.0021 74.9029 54.2789 71.2034 60.75C67.5039 67.2211 59.3144 69.4427 52.9116 65.7037C51.1437 64.6733 49.6985 63.2979 48.6088 61.7096C49.4272 63.4585 49.8903 65.406 49.8903 67.4669C49.8903 74.9402 43.8943 81 36.5 81C29.1056 81 23.1097 74.9402 23.1097 67.4669C23.1097 65.406 23.5727 63.4585 24.3912 61.7096C23.2968 63.2979 21.8563 64.6733 20.0884 65.7037C13.6855 69.4427 5.49609 67.2211 1.7966 60.75C-1.90293 54.2742 0.295283 45.9973 6.69808 42.2632C8.466 41.2327 10.3649 40.656 12.2731 40.4952C10.3649 40.3346 8.466 39.7673 6.69808 38.7368C0.295283 34.9979 -1.90293 26.7211 1.7966 20.25C5.49609 13.7789 13.6855 11.5573 20.0884 15.2963C21.8516 16.3267 23.2921 17.7069 24.3819 19.2952C23.568 17.5463 23.1097 15.594 23.1097 13.5331C23.1097 6.05981 29.1056 0 36.5 0C43.8943 0 49.8903 6.05981 49.8903 13.5331C49.8903 15.594 49.4319 17.5463 48.6181 19.2952C49.7079 17.7069 51.1437 16.3267 52.9116 15.2963C59.3144 11.5573 67.5039 13.7789 71.2034 20.25C74.9029 26.7211 72.7047 34.9979 66.3019 38.7368C64.534 39.7673 62.6351 40.3346 60.7269 40.4952ZM47.2992 59.313C45.695 55.5267 45.8166 51.0552 48.0101 47.2169C50.2036 43.3787 53.9733 41.0388 58.0189 40.5472L36.5047 40.5L47.2197 21.6444C44.7783 24.9391 40.8824 27.0709 36.5 27.0709C32.1176 27.0709 28.2217 24.9391 25.7803 21.6444L36.4953 40.5L14.9811 40.5472C19.022 41.0342 22.7964 43.3787 24.9899 47.2169C27.1834 51.0552 27.3003 55.5267 25.7008 59.313L36.5 40.5094L47.2992 59.313Z" fill="white"/>
  <path d="M420.603 22.4609H433.94V77.8112H420.603V22.4609Z" fill="white"/>
  <path d="M420.202 15.1411V0H434.341V15.1411H420.202Z" fill="white"/>
  <path d="M473.621 77.8112H464.898C459.216 77.8112 454.971 76.541 452.163 74.0009C449.356 71.4606 447.952 66.7144 447.952 59.7622V34.4937H437.824V22.4609H447.952V10.0272L461.288 6.31714V22.4609H472.318V34.4937H461.288V60.3638C461.288 62.2356 461.656 63.6394 462.391 64.5752C463.193 65.5111 464.697 65.979 466.903 65.979H473.621V77.8112Z" fill="white"/>
  <path d="M397.613 77.8112H410.648V22.4609H397.312V49.2336C397.312 54.9156 396.142 59.2274 393.802 62.1687C391.463 65.11 388.354 66.5807 384.477 66.5807C378.193 66.5807 375.052 63.0043 375.052 55.8516V22.4609H361.715V56.8542C361.715 63.7396 363.554 69.0541 367.23 72.7975C370.907 76.541 375.754 78.4127 381.77 78.4127C388.789 78.4127 394.07 75.6051 397.613 69.9899V77.8112Z" fill="white"/>
  <path fill-rule="evenodd" clip-rule="evenodd" d="M353.221 77.8112H340.185V69.288C338.715 72.363 336.475 74.7695 333.467 76.5076C330.526 78.1788 327.083 79.0144 323.139 79.0144C316.254 79.0144 310.471 76.5076 305.792 71.494C301.179 66.4803 298.873 59.3945 298.873 50.2363C298.873 41.0112 301.146 33.9254 305.692 28.9786C310.304 23.9651 316.053 21.4583 322.938 21.4583C326.615 21.4583 329.957 22.1936 332.966 23.6642C335.974 25.068 338.28 27.1069 339.884 29.7808V1.40381H353.221V77.8112ZM316.421 62.4695C319.095 65.344 322.37 66.7812 326.247 66.7812C330.125 66.7812 333.434 65.344 336.174 62.4695C338.915 59.5282 340.285 55.3837 340.285 50.0358C340.285 44.688 338.915 40.5768 336.174 37.7023C333.434 34.761 330.125 33.2903 326.247 33.2903C322.37 33.2903 319.095 34.761 316.421 37.7023C313.747 40.5768 312.41 44.688 312.41 50.0358C312.41 55.3837 313.747 59.5282 316.421 62.4695Z" fill="white"/>
  <path d="M288.388 26.7727C285.38 23.2297 280.868 21.4583 274.852 21.4583C267.498 21.4583 261.983 24.4664 258.307 30.4828V22.4609H245.071V77.8112H258.407V47.9301C258.407 43.4513 259.477 39.9083 261.616 37.3013C263.755 34.6942 266.629 33.3906 270.239 33.3906C273.18 33.3906 275.453 34.2931 277.058 36.098C278.729 37.8361 279.564 40.2426 279.564 43.3176V77.8112H292.901V42.1143C292.901 35.4294 291.397 30.3157 288.388 26.7727Z" fill="white"/>
  <path fill-rule="evenodd" clip-rule="evenodd" d="M211.517 21.4583C219.471 21.4583 225.956 24.0653 230.969 29.2794C236.05 34.4268 238.59 41.4124 238.59 50.2363C238.59 59.0603 236.05 66.0793 230.969 71.2935C225.956 76.4408 219.471 79.0144 211.517 79.0144C203.628 79.0144 197.144 76.4408 192.064 71.2935C187.05 66.0793 184.543 59.0603 184.543 50.2363C184.543 41.4124 187.05 34.4268 192.064 29.2794C197.144 24.0653 203.628 21.4583 211.517 21.4583ZM211.416 33.892C207.405 33.892 204.197 35.3627 201.79 38.304C199.384 41.1785 198.18 45.2896 198.18 50.6375C198.18 55.7179 199.45 59.6619 201.991 62.4695C204.531 65.2103 207.773 66.5807 211.717 66.5807C215.728 66.5807 218.937 65.1434 221.343 62.269C223.75 59.3276 224.953 55.1831 224.953 49.8352C224.953 44.7548 223.649 40.8442 221.042 38.1034C218.502 35.2958 215.293 33.892 211.416 33.892Z" fill="white"/>
  <path d="M160.635 62.269C156.958 64.9429 152.646 66.2799 147.7 66.2799C140.614 66.2799 135.065 63.7062 131.054 58.559C127.044 53.3447 125.038 47.0276 125.038 39.6075C125.038 32.3879 126.943 26.3047 130.754 21.3579C134.631 16.4113 140.213 13.9379 147.499 13.9379C152.579 13.9379 156.858 15.1746 160.334 17.6479C163.877 20.1213 165.882 23.4637 166.35 27.6752H180.589C179.653 19.1854 176.21 12.6008 170.261 7.92151C164.311 3.24219 156.824 0.902466 147.8 0.902466C141.717 0.902466 136.269 2.00549 131.456 4.21143C126.642 6.41748 122.765 9.35876 119.824 13.0354C116.949 16.712 114.743 20.8566 113.206 25.4691C111.735 30.0148 111 34.8279 111 39.9083C111 45.1893 111.802 50.2029 113.407 54.9491C115.011 59.6285 117.317 63.84 120.325 67.5834C123.333 71.26 127.177 74.2014 131.857 76.4073C136.603 78.6133 141.85 79.7163 147.599 79.7163C156.624 79.7163 164.311 77.1761 170.662 72.0957C177.012 66.9484 180.455 59.6285 180.99 50.1361H166.751C166.35 55.5508 164.311 59.5951 160.635 62.269Z" fill="white"/>
  </svg>
  