<svg width="120" height="30" viewBox="0 0 120 30" fill="none" xmlns="http://www.w3.org/2000/svg">
<g clip-path="url(#clip0_11081_19592)">
<path d="M13.882 10.6648C13.8802 10.9734 13.5987 11.1917 13.2944 11.1594C12.54 11.0794 11.8488 11.086 11.2026 11.1539C9.79605 11.3015 8.62716 11.7388 7.54955 12.1418L7.54716 12.1427C7.48199 12.1671 7.4171 12.1914 7.35249 12.2154C6.20824 12.6419 5.15388 13.0088 3.90292 13.0379C3.40391 13.0495 2.86622 13.0072 2.27428 12.8872C1.76645 12.7843 1.36083 12.3937 1.26019 11.8813C1.1805 11.4753 1.13867 11.0555 1.13867 10.6259C1.13867 7.07696 3.99144 4.19995 7.5104 4.19995C11.0295 4.19995 13.8821 7.07696 13.8821 10.6259C13.8821 10.6389 13.8821 10.6519 13.882 10.6648Z" fill="url(#paint0_radial_11081_19592)"/>
<path d="M1.70433 13.8582C1.22582 13.7423 0.789224 14.2608 1.0248 14.6965L7.27915 26.2604C7.3798 26.4465 7.6447 26.4465 7.74534 26.2604L14.6484 13.4969C14.8933 13.0442 14.6577 12.4771 14.1563 12.3761C13.0655 12.1563 12.1361 12.1327 11.3089 12.2195C10.0397 12.3528 8.98555 12.7466 7.8913 13.1554C7.8333 13.1771 7.77522 13.1988 7.71703 13.2205C6.57141 13.6475 5.36916 14.0755 3.92371 14.109C3.23673 14.125 2.505 14.0522 1.70433 13.8582Z" fill="url(#paint1_linear_11081_19592)"/>
<path d="M7.50977 13.5209C7.50977 13.3868 7.59276 13.267 7.71749 13.2205C7.77577 13.1988 7.83386 13.1771 7.89186 13.1554C8.98611 12.7466 10.0403 12.3528 11.3094 12.2195C12.1367 12.1327 13.066 12.1563 14.1569 12.3761C14.6583 12.4771 14.8938 13.0442 14.649 13.4969L7.7458 26.2604C7.69497 26.3544 7.60214 26.401 7.50977 26.4V13.5209Z" fill="url(#paint2_linear_11081_19592)"/>
<path fill-rule="evenodd" clip-rule="evenodd" d="M30.0599 7.96302C29.2436 7.72823 28.4853 7.61084 27.727 7.61084C26.3272 7.61084 25.044 7.96302 23.8778 8.54995C22.7113 9.19555 21.8365 10.076 21.1949 11.2498C20.5534 12.4237 20.2617 13.715 20.2617 15.2409C20.2617 16.767 20.6117 18.0582 21.2533 19.2321C21.8946 20.4059 22.8278 21.2863 23.9359 21.9319C25.044 22.5776 26.2684 22.9297 27.6691 22.9297C28.9514 22.9297 30.1178 22.695 31.1683 22.108C32.218 21.5798 33.0342 20.7581 33.6758 19.6429C34.3173 18.5277 34.6087 17.2365 34.6087 15.7104V15.0649C34.6087 14.9829 34.6087 14.8882 34.6087 14.7867L34.6096 14.665C34.6096 14.5293 34.5003 14.4192 34.3651 14.4192H28.3199C28.1848 14.4192 28.0754 14.5293 28.0754 14.665V16.8146C28.0754 16.9504 28.1848 17.0605 28.3199 17.0605H31.0792C31.1784 17.0605 31.2547 17.1495 31.2373 17.248C31.1794 17.565 31.0976 17.8528 30.9928 18.1169C30.7593 18.7625 30.3512 19.1733 29.7685 19.5255C29.2436 19.819 28.5432 19.9951 27.6691 19.9951C26.9687 19.9951 26.2684 19.7603 25.6856 19.4082C25.0441 18.9973 24.5771 18.469 24.2275 17.7648C23.8778 17.0605 23.7026 16.2387 23.7026 15.2996C23.7026 14.3605 23.8778 13.5388 24.2275 12.8345C24.5771 12.1302 25.0441 11.5433 25.6856 11.1911C26.3272 10.7803 27.0276 10.6042 27.785 10.6042C28.4853 10.6042 29.1848 10.7803 29.7685 11.0737C30.2869 11.3346 30.7593 11.7809 31.1444 12.3302C31.2235 12.4437 31.3788 12.4763 31.4928 12.3981L33.6629 10.9093C33.7686 10.8366 33.8008 10.6935 33.7309 10.5853C33.3329 9.96691 32.7989 9.445 32.218 9.01948C31.5176 8.54995 30.8761 8.19777 30.0599 7.96302ZM48.7397 8.43819L51.3427 7.74835C51.4972 7.7073 51.6488 7.82486 51.6488 7.98604V22.4491C51.6488 22.5849 51.5394 22.6949 51.4043 22.6949H48.8022C48.6671 22.6949 48.5577 22.5849 48.5577 22.4491V8.67588C48.5577 8.56425 48.6331 8.46662 48.7397 8.43819ZM79.442 14.5365C79.8501 14.3018 80.2582 14.1844 80.7252 14.1844C81.25 14.1844 81.6581 14.3605 82.0083 14.5365C82.3576 14.7126 82.6499 15.0648 82.8824 15.5343C83.1159 16.0038 83.2326 16.5321 83.2326 17.1778C83.2326 17.8234 83.1159 18.3516 82.8824 18.8212C82.7078 19.2907 82.4164 19.6429 82.0083 19.8776C81.6581 20.1124 81.1912 20.2298 80.7252 20.2298C80.2582 20.2298 79.7913 20.1124 79.442 19.8776C79.0919 19.6429 78.8005 19.2907 78.567 18.8212C78.3336 18.3516 78.2168 17.8234 78.2168 17.1778C78.2168 16.5321 78.3336 16.0038 78.567 15.5343C78.7417 15.1235 79.0339 14.7713 79.442 14.5365ZM83.6407 12.1302C82.8245 11.6606 81.8327 11.4258 80.7252 11.4258C79.6755 11.4258 78.6837 11.6606 77.8087 12.1302C76.9337 12.5997 76.2921 13.304 75.7673 14.1844C75.2425 15.0648 75.009 16.0626 75.009 17.1778C75.009 18.2929 75.3013 19.2907 75.7673 20.1711C76.2342 21.0515 76.9337 21.7558 77.8087 22.2253C78.6837 22.6949 79.6755 22.9296 80.7252 22.9296C81.7748 22.9296 82.7657 22.6949 83.6407 22.2253C84.5157 21.7558 85.1573 21.0515 85.6822 20.1711C86.207 19.2907 86.4404 18.2929 86.4404 17.1778C86.4404 16.0626 86.1491 15.0648 85.6822 14.1844C85.2152 13.304 84.5157 12.5997 83.6407 12.1302ZM61.5664 21.5761C61.5894 21.5389 61.6565 21.556 61.6565 21.5999V22.4492C61.6565 22.585 61.765 22.695 61.9001 22.695H64.5031C64.6373 22.695 64.7467 22.585 64.7467 22.4492V12.0239C64.7467 11.8882 64.6373 11.7781 64.5031 11.7781H61.9001C61.765 11.7781 61.6565 11.8882 61.6565 12.0239V12.9686C61.6565 13.0493 61.5499 13.0831 61.5012 13.0191C61.3376 12.8049 61.1556 12.6058 60.9561 12.4237C60.3146 11.7781 59.4395 11.4846 58.3899 11.4846C57.4569 11.4846 56.6407 11.7194 55.8824 12.2477C55.182 12.7172 54.5993 13.4215 54.1912 14.302C53.7822 15.1824 53.6075 16.1801 53.6075 17.2366C53.6075 18.293 53.7822 19.2908 54.1912 20.1712C54.5993 21.0516 55.1241 21.6973 55.8824 22.2255C56.5819 22.7537 57.4569 22.9885 58.3899 22.9885C59.4983 22.9885 60.3146 22.6363 61.014 22.1668C61.2815 21.9876 61.4653 21.7379 61.5664 21.5761ZM60.4892 19.8191C60.0811 20.0538 59.673 20.1712 59.2061 20.1712C58.74 20.1712 58.332 20.0538 57.9229 19.8191C57.5737 19.5843 57.2823 19.2322 57.0488 18.7626C56.8733 18.293 56.7565 17.7648 56.7565 17.1778C56.7565 16.5909 56.8153 16.1214 57.0488 15.6518C57.2823 15.241 57.5737 14.8889 57.9229 14.6541C58.332 14.4193 58.74 14.302 59.2061 14.302C59.673 14.302 60.1399 14.4193 60.4892 14.6541C60.8394 14.8889 61.1308 15.1823 61.3642 15.6518C61.5398 16.0627 61.6565 16.5909 61.6565 17.1778C61.6565 17.7648 61.5977 18.293 61.3642 18.7626C61.1308 19.2322 60.8394 19.5843 60.4892 19.8191ZM71.5337 14.1845C71.4896 14.1845 71.4528 14.2211 71.4528 14.2664V18.469C71.4528 19.4668 71.8609 19.995 72.6771 19.995H73.5999C73.735 19.995 73.8435 20.1051 73.8435 20.2409V22.4491C73.8435 22.5849 73.735 22.695 73.5999 22.695H72.269C71.0447 22.695 70.0529 22.3427 69.4114 21.6384C68.7119 20.9341 68.3617 19.9364 68.3617 18.6451V14.2664C68.3617 14.2211 68.3249 14.1845 68.2799 14.1845H66.4756C66.3083 14.1845 66.1907 14.0189 66.244 13.8594L66.892 11.9446C66.926 11.845 67.0188 11.778 67.1236 11.778H68.2799C68.3249 11.778 68.3617 11.7413 68.3617 11.6961V8.75785C68.3617 8.64621 68.4362 8.54859 68.5437 8.52015L71.2488 7.80324C71.3517 7.77587 71.4528 7.85424 71.4528 7.9617V11.6961C71.4528 11.7413 71.4896 11.778 71.5337 11.778H73.6652C73.8334 11.778 73.951 11.9436 73.8968 12.103L73.2488 14.0179C73.2157 14.1175 73.122 14.1845 73.0181 14.1845H71.5337ZM41.4665 11.4258C42.5162 11.4258 43.3912 11.6606 44.1495 12.1302C44.9069 12.5997 45.5484 13.304 45.9574 14.1844C46.4235 15.0648 46.599 16.0626 46.599 17.1778V17.695C46.599 17.8307 46.4896 17.9408 46.3545 17.9408H39.4324C39.3341 17.9408 39.2578 18.0286 39.2743 18.1265C39.3258 18.4203 39.3975 18.6783 39.483 18.8798C39.7164 19.3494 40.0087 19.7016 40.358 19.8776C40.7082 20.0537 41.1751 20.2298 41.7579 20.2298C42.2827 20.2298 42.8075 20.1124 43.1577 19.9364C43.4951 19.7908 43.7928 19.525 44.0502 19.2052C44.1384 19.0953 44.2993 19.0726 44.4087 19.1618L46.1826 20.6089C46.2847 20.6922 46.303 20.8421 46.2203 20.9444C45.7231 21.5562 45.1256 22.0223 44.382 22.3427C43.5658 22.6949 42.6908 22.871 41.7579 22.871C40.6494 22.871 39.6585 22.6362 38.7835 22.1666C37.9085 21.6971 37.2669 20.9928 36.8009 20.1124C36.334 19.232 36.1005 18.2343 36.1005 17.119C36.1005 16.0038 36.334 15.0061 36.8009 14.1257C37.2669 13.2453 37.9085 12.5997 38.7247 12.0715C39.5418 11.6606 40.4168 11.4258 41.4665 11.4258ZM39.5013 15.8866C39.3984 15.8866 39.3212 15.7918 39.346 15.6915C39.448 15.2692 39.5969 14.9235 39.7743 14.6539C40.1245 14.1256 40.7082 13.8322 41.4665 13.8322C42.166 13.8322 42.7496 14.1256 43.0989 14.6539C43.2735 14.9172 43.4188 15.2677 43.5208 15.6912C43.5456 15.7917 43.4675 15.8866 43.3654 15.8866H39.5013Z" fill="white"/>
</g>
<defs>
<radialGradient id="paint0_radial_11081_19592" cx="0" cy="0" r="1" gradientUnits="userSpaceOnUse" gradientTransform="translate(11.3736 6.0742) rotate(149.632) scale(11.1128 13.3706)">
<stop offset="0.116813" stop-color="white"/>
<stop offset="0.734375" stop-color="#8F8F8F"/>
<stop offset="1" stop-color="#9D9D9D"/>
</radialGradient>
<linearGradient id="paint1_linear_11081_19592" x1="7.85242" y1="12.5115" x2="7.85242" y2="26.4" gradientUnits="userSpaceOnUse">
<stop stop-color="#919191"/>
<stop offset="0.46875" stop-color="#7E7E7E"/>
<stop offset="1" stop-color="#969696"/>
</linearGradient>
<linearGradient id="paint2_linear_11081_19592" x1="11.1281" y1="12.1726" x2="11.1281" y2="27.3249" gradientUnits="userSpaceOnUse">
<stop stop-color="white"/>
<stop offset="0.197917" stop-color="#EDEDED"/>
<stop offset="1" stop-color="#ABABAB"/>
</linearGradient>
<clipPath id="clip0_11081_19592">
<rect width="86.4" height="22.2" fill="white" transform="translate(0.5 4.19995)"/>
</clipPath>
</defs>
</svg>
