<svg width="24" height="24" viewBox="0 0 24 24" fill="none" xmlns="http://www.w3.org/2000/svg">
<path fill-rule="evenodd" clip-rule="evenodd" d="M11.9998 4.91516C8.08952 4.91516 4.91504 8.08964 4.91504 12C4.91504 15.9103 8.08952 19.0848 11.9998 19.0848C15.9102 19.0848 19.0846 15.9103 19.0846 12C19.0846 8.08964 15.9102 4.91516 11.9998 4.91516ZM11.9998 5.85923C15.3889 5.85923 18.1395 8.61083 18.1395 11.9999C18.1395 15.3889 15.3889 18.1395 11.9998 18.1395C8.6108 18.1395 5.8592 15.3889 5.8592 11.9999C5.8592 8.61083 8.6108 5.85923 11.9998 5.85923ZM11.5273 11.5273H8.22085C7.96023 11.5273 7.7493 11.7392 7.7493 11.9998C7.7493 12.2605 7.96023 12.4723 8.22085 12.4723H11.5273V15.7779C11.5273 16.0394 11.7392 16.2504 11.9998 16.2504C12.2605 16.2504 12.4724 16.0394 12.4724 15.7779V12.4723H15.7779C16.0394 12.4723 16.2504 12.2605 16.2504 11.9998C16.2504 11.7392 16.0394 11.5273 15.7779 11.5273H12.4724V8.22083C12.4724 7.96021 12.2605 7.74927 11.9998 7.74927C11.7392 7.74927 11.5273 7.96021 11.5273 8.22083V11.5273Z" fill="white"/>
</svg>
