<svg width="18" height="20" viewBox="0 0 18 20" fill="none" xmlns="http://www.w3.org/2000/svg">
<g clip-path="url(#clip0_10061_18123)">
<path d="M8.79832 1.23923C8.8456 1.23923 8.89288 1.25236 8.93527 1.27534L16.2346 5.51826C16.3194 5.5675 16.3715 5.65942 16.3715 5.75626V14.2405C16.3715 14.3389 16.3194 14.4292 16.2346 14.4785L8.93527 18.7214C8.89451 18.746 8.8456 18.7575 8.79832 18.7575C8.75104 18.7575 8.70375 18.7444 8.66136 18.7214L1.36205 14.4817C1.27727 14.4325 1.2251 14.3406 1.2251 14.2437V5.7579C1.2251 5.65942 1.27727 5.56914 1.36205 5.5199L8.66136 1.27698C8.70375 1.25236 8.75104 1.23923 8.79832 1.23923ZM8.79832 0C8.53908 0 8.27822 0.0672958 8.04507 0.203529L0.747387 4.44481C0.281092 4.71563 -0.00585938 5.21625 -0.00585938 5.7579V14.2421C-0.00585938 14.7838 0.281092 15.2844 0.747387 15.5552L8.0467 19.7981C8.27985 19.9327 8.53908 20.0016 8.79995 20.0016C9.06081 20.0016 9.32005 19.9343 9.55319 19.7981L16.8525 15.5552C17.3188 15.2844 17.6058 14.7838 17.6058 14.2421V5.7579C17.6058 5.21625 17.3188 4.71563 16.8525 4.44481L9.55157 0.203529C9.31842 0.0672958 9.05755 0 8.79832 0Z" fill="#E57310"/>
<path d="M6.93726 5.65454H5.98348C5.91174 5.65454 5.84816 5.69886 5.8237 5.76779L2.75691 14.2307C2.73735 14.2865 2.77811 14.3456 2.8368 14.3456H3.79059C3.86232 14.3456 3.92591 14.3012 3.95037 14.2323L7.01715 5.76779C7.03672 5.71363 6.99596 5.65454 6.93726 5.65454Z" fill="#E57310"/>
<path d="M8.17106 8.93553C8.14335 8.86003 8.039 8.86003 8.01128 8.93553L7.51564 10.3044C7.5026 10.3422 7.5026 10.3832 7.51564 10.4226L8.89659 14.2339C8.92105 14.3011 8.98464 14.3471 9.05637 14.3471H10.0102C10.0689 14.3471 10.1096 14.288 10.09 14.2322L8.17106 8.93553Z" fill="#E57310"/>
<path d="M8.6036 5.65454H7.64982C7.57808 5.65454 7.51449 5.69886 7.49004 5.76779L4.42488 14.2307C4.40531 14.2865 4.44607 14.3456 4.50477 14.3456H5.45856C5.53029 14.3456 5.59388 14.3012 5.61833 14.2323L8.68512 5.76779C8.70469 5.71363 8.66393 5.65454 8.6036 5.65454Z" fill="#E57310"/>
<path d="M9.00505 6.63451C8.97733 6.55901 8.87299 6.55901 8.84527 6.63451L8.34963 8.0034C8.33658 8.04116 8.33658 8.08219 8.34963 8.12158L10.5653 14.234C10.5898 14.3013 10.6534 14.3473 10.7251 14.3473H11.6789C11.7376 14.3473 11.7784 14.2882 11.7588 14.2324L9.00505 6.63451Z" fill="#E57310"/>
<path d="M14.7574 5.65454H13.8036C13.7318 5.65454 13.6682 5.69886 13.6438 5.76779L11.4297 11.8802C11.4167 11.918 11.4167 11.959 11.4297 11.9984L11.9253 13.3673C11.9531 13.4428 12.0574 13.4428 12.0851 13.3673L14.8372 5.77108C14.8584 5.71363 14.8161 5.65454 14.7574 5.65454Z" fill="#E57310"/>
<path d="M11.0933 11.0645C11.121 11.14 11.2254 11.14 11.2531 11.0645L13.1721 5.76944C13.1916 5.71363 13.1509 5.65454 13.0922 5.65454H12.1384C12.0667 5.65454 12.0031 5.69886 11.9786 5.76779L10.5977 9.57904C10.5846 9.61679 10.5846 9.65782 10.5977 9.69722L11.0933 11.0645Z" fill="#E57310"/>
</g>
<defs>
<clipPath id="clip0_10061_18123">
<rect width="17.6084" height="20" fill="white" transform="translate(-0.00585938)"/>
</clipPath>
</defs>
</svg>
