<svg xmlns="http://www.w3.org/2000/svg" id="Layer_1" data-name="Layer 1" viewBox="0 0 1653.04 421.79">
  <defs>
    <style>
      .cls-1 {
        fill: #fff;
      }
    </style>
  </defs>
  <g>
    <g>
      <path class="cls-1" d="m539.76,109.72c3.87,0,7.23.77,9.9,2.41,2.67,1.64,5.34,4.74,7.92,9.39l51.06,92.74c.52,1.03.6,1.89.34,2.58-.26.69-1.03,1.03-2.24,1.03h-19.63c-1.72,0-2.93-.69-3.53-1.98l-10.94-19.89h-72.59l-10.68,19.89c-.69,1.38-1.89,1.98-3.53,1.98h-20.06c-1.38,0-2.15-.34-2.41-1.03-.26-.69-.17-1.55.34-2.58l50.72-92.82c2.58-4.65,5.08-7.75,7.58-9.39,2.5-1.64,5.34-2.41,8.61-2.41h9.13v.09Zm-30.05,68.28h53.21l-24.54-45.29c-.43-.69-.95-1.12-1.72-1.12h-.95c-.69,0-1.29.34-1.72,1.12l-24.28,45.29Z"/>
      <path class="cls-1" d="m721.1,109.72c11.88,0,20.32,2.67,25.49,8.01,5.17,5.34,7.75,13.26,7.75,23.77v8.78c0,8.87-1.81,15.84-5.42,21.01-3.62,5.17-9.47,8.44-17.65,9.9l26.43,32.72c.52.52.69,1.29.43,2.32-.17,1.03-1.03,1.55-2.5,1.55h-19.89c-1.38,0-2.24-.17-2.76-.43-.52-.34-1.03-.86-1.55-1.55l-24.45-32.12h-49.94v30.74c0,2.24-1.12,3.36-3.36,3.36h-16.7c-2.41,0-3.53-1.12-3.53-3.36v-100.06c0-3.1,1.55-4.65,4.65-4.65h83.01Zm-63.98,55.11h59.16c5.25,0,8.96-1.12,11.11-3.36,2.15-2.24,3.27-5.68,3.27-10.33v-6.46c0-4.65-1.12-8.09-3.27-10.33-2.15-2.24-5.86-3.36-11.11-3.36h-57.17c-1.38,0-1.98.6-1.98,1.89v31.95Z"/>
      <path class="cls-1" d="m883.59,109.72c10.59,0,18.17,2.15,22.65,6.37,4.48,4.22,6.72,10.59,6.72,19.12v7.41c0,8.61-3.27,15.15-9.9,19.63,7.06,4.13,10.68,10.76,10.68,19.89v8.96c0,4.13-.43,7.84-1.38,11.11-.95,3.27-2.41,6.11-4.56,8.44-2.15,2.32-4.91,4.13-8.44,5.34-3.53,1.21-7.84,1.89-13,1.89h-91.79c-3.1,0-4.65-1.55-4.65-4.65v-98.85c0-3.1,1.55-4.65,4.65-4.65h89.03Zm-70,44.95h63.37c5.17,0,8.61-.77,10.5-2.32,1.89-1.55,2.76-3.79,2.76-6.8v-5.25c0-3.19-.86-5.51-2.67-7.06-1.81-1.46-4.74-2.24-8.7-2.24h-63.2c-1.38,0-1.98.69-1.98,1.98v21.7h-.09Zm0,16.79v22.99c0,1.38.69,1.98,1.98,1.98h63.37c4.13,0,7.06-.77,8.78-2.24,1.72-1.46,2.67-3.87,2.67-7.15v-5.86c0-3.19-.95-5.6-2.84-7.23-1.89-1.64-5.42-2.5-10.59-2.5h-63.37Z"/>
      <path class="cls-1" d="m971.33,109.72c2.24,0,3.36,1.12,3.36,3.36v101.35c0,2.24-1.12,3.36-3.36,3.36h-16.7c-2.41,0-3.53-1.12-3.53-3.36v-101.35c0-2.24,1.21-3.36,3.53-3.36h16.7Z"/>
      <path class="cls-1" d="m1133.21,109.72c2.41,0,3.53,1.12,3.53,3.36v15.15c0,2.41-1.21,3.53-3.53,3.53h-48.48v82.66c0,2.24-1.12,3.36-3.36,3.36h-16.88c-2.24,0-3.36-1.12-3.36-3.36v-82.66h-48.48c-2.41,0-3.53-1.21-3.53-3.53v-15.15c0-2.24,1.21-3.36,3.53-3.36h120.55Z"/>
      <path class="cls-1" d="m1255.4,109.72c11.88,0,20.32,2.67,25.49,8.01,5.17,5.34,7.75,13.26,7.75,23.77v8.78c0,8.87-1.81,15.84-5.42,21.01-3.62,5.17-9.47,8.44-17.65,9.9l26.43,32.72c.52.52.69,1.29.43,2.32-.17,1.03-1.03,1.55-2.5,1.55h-19.89c-1.38,0-2.24-.17-2.76-.43-.52-.34-1.03-.86-1.55-1.55l-24.45-32.12h-49.94v30.74c0,2.24-1.12,3.36-3.36,3.36h-16.7c-2.41,0-3.53-1.12-3.53-3.36v-100.06c0-3.1,1.55-4.65,4.65-4.65h83.01Zm-63.89,55.11h59.16c5.25,0,8.96-1.12,11.11-3.36,2.15-2.24,3.27-5.68,3.27-10.33v-6.46c0-4.65-1.12-8.09-3.27-10.33-2.15-2.24-5.86-3.36-11.11-3.36h-57.17c-1.38,0-1.98.6-1.98,1.89v31.95h0Z"/>
      <path class="cls-1" d="m1342.28,109.72c2.24,0,3.36,1.12,3.36,3.36v61.65c0,4.13.34,7.58,1.03,10.25.69,2.76,1.81,4.91,3.36,6.46,1.55,1.64,3.62,2.76,6.29,3.36,2.67.69,5.94,1.03,9.99,1.03h42.79c4.05,0,7.32-.34,9.99-1.03,2.67-.69,4.74-1.81,6.29-3.36,1.55-1.64,2.67-3.79,3.27-6.46.6-2.76.95-6.11.95-10.25v-61.65c0-2.24,1.12-3.36,3.36-3.36h16.88c2.24,0,3.36,1.12,3.36,3.36v63.98c0,7.41-.77,13.69-2.32,18.94-1.55,5.17-4.05,9.39-7.49,12.66-3.44,3.27-7.92,5.6-13.43,7.06-5.51,1.46-12.14,2.15-19.98,2.15h-44.52c-7.84,0-14.47-.69-19.89-2.15-5.42-1.46-9.9-3.79-13.35-7.06-3.44-3.27-5.94-7.49-7.58-12.66-1.64-5.17-2.41-11.54-2.41-18.94v-63.98c0-2.24,1.21-3.36,3.53-3.36h16.53Z"/>
      <path class="cls-1" d="m1519.57,109.72c2.24,0,4.22.17,5.86.43,1.64.34,3.1.86,4.31,1.81,1.21.86,2.32,2.07,3.36,3.53.95,1.46,1.98,3.44,3.01,5.94l32.12,74.14c.43.95,1.12,1.38,2.15,1.38h1.89c1.03,0,1.72-.43,2.15-1.38l32.12-74.14c1.03-2.5,2.07-4.48,3.01-5.94.95-1.46,2.07-2.67,3.36-3.53,1.21-.86,2.67-1.46,4.22-1.81,1.64-.34,3.53-.43,5.77-.43h16.53c5.34,0,8.96,1.21,10.85,3.62,1.89,2.41,2.76,6.54,2.76,12.4v88.69c0,2.24-1.21,3.36-3.53,3.36h-15.76c-2.24,0-3.36-1.12-3.36-3.36v-80.68c0-1.03-.43-1.55-1.21-1.55h-1.38c-1.03,0-1.72.43-1.98,1.21l-31.17,69.23c-1.21,2.76-2.5,5.17-3.79,7.06-1.29,1.89-2.67,3.44-4.13,4.74-1.46,1.21-3.19,2.15-5.08,2.67-1.89.52-4.13.77-6.72.77h-7.41c-2.58,0-4.82-.26-6.72-.77-1.89-.52-3.62-1.38-5.08-2.67-1.46-1.21-2.93-2.84-4.13-4.74-1.29-1.89-2.58-4.22-3.79-7.06l-31.17-69.23c-.34-.86-.95-1.21-1.98-1.21h-1.38c-.86,0-1.21.52-1.21,1.55v80.68c0,2.24-1.12,3.36-3.36,3.36h-15.76c-2.41,0-3.53-1.12-3.53-3.36v-88.69c0-5.86.95-9.99,2.76-12.4,1.89-2.41,5.51-3.62,10.94-3.62h16.45Z"/>
    </g>
    <g>
      <path class="cls-1" d="m521.98,249.82c4.51,0,8.36.43,11.53,1.29,3.18.86,5.76,2.23,7.75,4.1s3.43,4.29,4.32,7.26c.89,2.97,1.34,6.59,1.34,10.87v15.32c0,4.27-.44,7.91-1.34,10.91-.89,3-2.33,5.43-4.32,7.3s-4.57,3.22-7.75,4.05-7.02,1.25-11.53,1.25h-27.52c-4.51,0-8.34-.42-11.49-1.25-3.15-.83-5.72-2.18-7.7-4.05-1.99-1.87-3.45-4.3-4.36-7.3-.92-3-1.38-6.64-1.38-10.91v-15.32c0-4.27.46-7.9,1.38-10.87.92-2.97,2.37-5.39,4.36-7.26,1.99-1.87,4.55-3.23,7.7-4.1,3.15-.86,6.98-1.29,11.49-1.29h27.52Zm-38.83,37.85c0,2.32.19,4.26.58,5.83.38,1.57,1.02,2.82,1.92,3.74.89.92,2.09,1.58,3.61,1.96,1.51.39,3.43.58,5.75.58h26.45c2.31,0,4.23-.19,5.74-.58,1.51-.38,2.72-1.04,3.61-1.96.89-.92,1.53-2.17,1.92-3.74.38-1.57.58-3.52.58-5.83v-13.36c0-2.32-.19-4.26-.58-5.83-.39-1.58-1.02-2.82-1.92-3.74-.89-.92-2.09-1.57-3.61-1.96-1.51-.38-3.43-.58-5.74-.58h-26.45c-2.32,0-4.23.2-5.75.58-1.51.39-2.72,1.04-3.61,1.96-.89.92-1.53,2.17-1.92,3.74-.39,1.57-.58,3.52-.58,5.83v13.36Z"/>
      <path class="cls-1" d="m617.36,249.82c6.83,0,11.73,1.55,14.7,4.63,2.97,3.09,4.45,7.66,4.45,13.72v5.08c0,5.11-1.04,9.14-3.12,12.11-2.08,2.97-5.46,4.87-10.15,5.7l15.23,18.88c.3.3.38.74.27,1.34-.12.59-.59.89-1.42.89h-11.49c-.77,0-1.31-.09-1.6-.27-.3-.18-.59-.47-.89-.89l-14.07-18.53h-28.77v17.72c0,1.3-.65,1.96-1.96,1.96h-9.62c-1.37,0-2.05-.65-2.05-1.96v-57.71c0-1.78.89-2.67,2.67-2.67h47.83Zm-36.87,31.8h34.11c3.03,0,5.17-.65,6.41-1.96,1.25-1.3,1.87-3.29,1.87-5.97v-3.74c0-2.67-.62-4.66-1.87-5.97-1.25-1.3-3.39-1.96-6.41-1.96h-32.95c-.77,0-1.16.36-1.16,1.07v18.53Z"/>
      <path class="cls-1" d="m710.35,249.82c6.11,0,10.46,1.22,13.05,3.65,2.58,2.44,3.87,6.12,3.87,11.04v4.27c0,4.99-1.9,8.76-5.7,11.31,4.1,2.37,6.15,6.2,6.15,11.49v5.17c0,2.37-.27,4.51-.8,6.41s-1.41,3.52-2.63,4.85c-1.22,1.34-2.84,2.36-4.85,3.07-2.02.71-4.51,1.07-7.48,1.07h-52.9c-1.78,0-2.67-.89-2.67-2.67v-57c0-1.78.89-2.67,2.67-2.67h51.3Zm-40.34,25.92h36.51c2.97,0,4.99-.44,6.06-1.34,1.07-.89,1.6-2.19,1.6-3.92v-3.03c0-1.84-.52-3.19-1.56-4.05s-2.72-1.29-5.03-1.29h-36.43c-.77,0-1.16.39-1.16,1.16v12.47Zm0,9.71v13.27c0,.77.38,1.16,1.16,1.16h36.51c2.37,0,4.07-.43,5.08-1.29,1.01-.86,1.51-2.24,1.51-4.14v-3.39c0-1.84-.55-3.23-1.65-4.18-1.1-.95-3.13-1.42-6.1-1.42h-36.51Z"/>
      <path class="cls-1" d="m758.79,249.82c1.31,0,1.96.65,1.96,1.96v58.42c0,1.3-.65,1.96-1.96,1.96h-9.62c-1.37,0-2.05-.65-2.05-1.96v-58.42c0-1.31.68-1.96,2.05-1.96h9.62Z"/>
      <path class="cls-1" d="m849.28,249.82c1.36,0,2.05.65,2.05,1.96v8.73c0,1.37-.68,2.05-2.05,2.05h-27.97v47.65c0,1.3-.65,1.96-1.96,1.96h-9.71c-1.31,0-1.96-.65-1.96-1.96v-47.65h-27.97c-1.37,0-2.05-.68-2.05-2.05v-8.73c0-1.31.68-1.96,2.05-1.96h69.56Z"/>
    </g>
  </g>
  <path class="cls-1" d="m357.54,93.19L203.87,4.47c-10.32-5.96-23.14-5.96-33.46,0L16.73,93.19C6.41,99.15,0,110.25,0,122.17v177.45c0,11.92,6.41,23.02,16.73,28.98l153.68,88.73c5.16,2.98,10.94,4.47,16.73,4.47s11.57-1.49,16.73-4.47l153.68-88.73c10.32-5.96,16.73-17.06,16.73-28.98V122.17c0-11.92-6.41-23.02-16.73-28.98Zm-167.06,300.94c-2.06,1.19-4.62,1.19-6.68,0L30.12,305.41c-2.06-1.19-3.34-3.41-3.34-5.79v-128.09h160.36c10.24,0,19.59,3.93,26.6,10.38,7.84,7.2,12.77,17.53,12.77,28.99s-4.93,21.79-12.77,28.99h32.84c4.29-8.76,6.7-18.6,6.7-28.99s-2.41-20.23-6.7-28.99c-1.79-3.66-3.91-7.13-6.33-10.38-12.06-16.24-31.38-26.78-53.12-26.78H26.78v-10.37h160.36c27.8,0,52.19,14.91,65.59,37.15,1.99,3.3,3.74,6.77,5.22,10.38,3.68,8.94,5.71,18.74,5.71,28.99s-2.03,20.04-5.71,28.99h28.38c2.71-9.3,4.1-19.04,4.1-28.99,0-27.59-10.74-53.53-30.25-73.04-19.51-19.51-45.45-30.25-73.04-30.25H45.33L183.8,27.66c1.03-.59,2.18-.89,3.34-.89s2.31.3,3.34.89l153.68,88.72c2.06,1.19,3.34,3.41,3.34,5.79v128.09h-160.36c-10.24,0-19.59-3.93-26.6-10.38-7.84-7.2-12.77-17.53-12.77-28.99s4.93-21.79,12.77-28.99h-32.84c-4.29,8.76-6.7,18.6-6.7,28.99,0,36.47,29.67,66.14,66.14,66.14h160.36v10.38h-160.36c-42.19,0-76.52-34.33-76.52-76.52,0-10.25,2.03-20.04,5.7-28.99h-28.38c-2.71,9.3-4.11,19.04-4.11,28.99,0,27.59,10.74,53.53,30.25,73.04,19.51,19.51,45.45,30.26,73.04,30.26h141.8l-138.46,79.94Z"/>
</svg>